<?xml version="1.0" standalone="yes"?>

<svg version="1.1" viewBox="0.0 0.0 800.0 600.0" fill="none" stroke="none" stroke-linecap="square" stroke-miterlimit="10" xmlns="http://www.w3.org/2000/svg" xmlns:xlink="http://www.w3.org/1999/xlink"><clipPath id="p.0"><path d="m0 0l800.0 0l0 600.0l-800.0 0l0 -600.0z" clip-rule="nonzero"></path></clipPath><g clip-path="url(#p.0)"><path fill="#000000" fill-opacity="0.0" d="m0 0l800.0 0l0 600.0l-800.0 0z" fill-rule="nonzero"></path><path fill="#000000" d="m763.54175 255.72107l-1.8737793 0.07203674l-3.531128 0.8648529l-3.1708984 1.6573486l-2.7383423 2.3060303l-1.0809937 1.3695068l24.862366 0l-1.0809937 -1.3695068l-2.7383423 -2.3060303l-3.1708984 -1.6573486l-3.531128 -0.8648529l-1.9458618 -0.07203674zm13.908752 9.080139l0.64837646 0.072052l0.86486816 0.79281616l0.072021484 0.5766907l0 3.6031494l-0.072021484 0.576355l-0.86486816 0.79281616l-0.64837646 0.072021484l-8.215637 0l-0.64837646 -0.072021484l-0.86486816 -0.79281616l-0.072021484 -0.576355l0 -4.323944l-7.7109985 0l0 4.323944l-0.072021484 0.576355l-0.86486816 0.79281616l-0.6487427 0.072021484l-8.1432495 0l-0.6487427 -0.072021484l-0.86450195 -0.79281616l-0.072021484 -0.576355l0 -3.6031494l0.072021484 -0.5766907l0.86450195 -0.79281616l0.6487427 -0.072052zm-27.889526 -1.8014221l-1.2250366 0.504303l-0.9369507 0.93692017l-0.50427246 1.1530151l-0.072021484 0.6487427l0 3.6031494l0.072021484 0.64837646l0.50427246 1.1530457l0.9369507 0.93688965l1.2250366 0.5046387l9.512756 0l1.2250977 -0.5046387l0.93688965 -0.93688965l0.50427246 -1.1530457l0 -0.64837646l0 -2.5221863l4.107849 0l0 2.5221863l0.072021484 0.64837646l0.5046387 1.1530457l0.9365845 0.93688965l1.2254028 0.5046387l9.51239 0l1.2250366 -0.5046387l0.9369507 -0.93688965l0.5046387 -1.1530457l0.072021484 -0.64837646l0 -3.6031494l-0.072021484 -0.6487427l-0.5046387 -1.1530151l-0.9369507 -0.93692017l-1.2250366 -0.504303zm13.404114 5.0443726l0 2.0178833l-0.07208252 0.79281616l-0.64837646 1.4412231l-1.0809937 1.0809631l-1.4411621 0.6487427l-0.7928467 0.072052l-9.656799 0l-0.5043335 -0.072052l-0.43255615 -0.072052l0.28851318 1.2971191l0.86450195 2.5942383l1.3695068 2.3060303l1.7293701 2.0179138l2.0178833 1.7297058l2.3060303 1.3691406l2.5222168 0.93692017l2.7386475 0.504303l2.8103638 0l2.7386475 -0.504303l2.5221558 -0.93692017l2.3060913 -1.3691406l2.0178833 -1.7297058l1.6573486 -2.0179138l1.3695068 -2.3060303l0.93688965 -2.5221863l0.28814697 -1.2971191l-0.3602295 0l-0.28851318 0.072052l-9.656494 0l-0.79278564 -0.072052l-1.4415283 -0.6487427l-1.0806274 -1.0809631l-0.6487427 -1.4412231l-0.07208252 -0.79281616l0 -2.0178833zm-2.6662598 22.988892l-0.43225098 0.072021484l-0.5767212 0.5766907l0 0.3602295l2.81073 5.90921l3.24292 0l2.7383423 -5.90921l-0.07208252 -0.3602295l-0.50427246 -0.5766907l-0.4326172 -0.072021484zm2.0178833 7.4948425l-0.144104 0.072052l-0.072021484 0.14407349l-1.2971191 20.178162l0 0.072052l2.6662598 4.1798706l0.072021484 0.072021484l0.21612549 0l0 -0.072021484l2.8827515 -4.1078186l0 -0.072052l0 -0.072052l-1.3691406 -20.178162l-0.072021484 -0.14407349l-0.14447021 -0.072052zm-13.043884 -6.8461304l0 5.549011l-0.43225098 0l0 5.0443726l0.43225098 0l0 22.4122l-4.828247 -1.0809937l-5.1887817 -1.5132446l0 -0.43225098l0 -13.980774l0 -1.3691711l0.36016846 -2.5221863l0.72076416 -2.3784485l1.0809937 -2.2340088l2.0178833 -3.0264587l3.675232 -3.242981l2.1619873 -1.2250671zm27.961182 -0.28851318l1.1530151 0.5766907l2.1619873 1.2971191l1.9458618 1.6573181l1.6576538 1.8738098l1.4412231 2.0899353l1.0809937 2.3060303l0.79278564 2.5221863l0.3602295 2.594574l0.072021484 1.3691711l0 13.980774l-0.072021484 0.504303l-0.5043335 0.28814697l-5.404907 1.8738098l-4.6845093 1.0089417l0 -23.060913l0.4326172 0l0 -5.0443726l-0.4326172 0l0 -5.8375244zm-7.062256 -1.5132446l2.2340088 0.144104l2.0899658 0.43225098l0 6.774414l-0.43225098 0l0 5.0443726l0.43225098 0l0 23.421143l-2.2340088 0.28851318l-5.044739 0.36019897l-5.6210938 -0.072021484l-6.269409 -0.5766907l-3.387024 -0.504303l0 -22.91684l0.50427246 0l0 -5.0443726l-0.50427246 0l0 -6.557953l1.2250366 -0.3605652l2.5222168 -0.36019897l1.2971191 -0.072052zm-13.187927 -2.0899353l-2.0178833 0.072052l-3.8913574 0.79281616l-1.8017578 0.72042847l-1.2971191 0.5766907l-2.4501343 1.5132446l-2.2340088 1.8017578l-1.9458618 2.0899353l-1.5856323 2.3780823l-1.2971191 2.6662598l-0.86450195 2.738678l-0.4326172 2.954773l0 1.5852966l0 16.07071l0 0.21612549l1.0809937 0.36019897l3.8917236 1.1530457l7.350403 1.7297058l6.774048 1.0089417l6.197754 0.43225098l2.81073 0.072052l5.260498 -0.144104l8.575806 -1.2250671l8.359741 -2.3780823l1.3691406 -0.7207947l1.0809937 -0.50427246l0.07208252 0l0 -16.07071l-0.07208252 -2.0899353l-0.79278564 -3.8193054l-1.5132446 -3.6035156l-2.0899658 -3.1705627l-2.7386475 -2.666626l-3.1705322 -2.1619568l-3.5314941 -1.5132446l-3.8913574 -0.79281616l-2.0178833 -0.072052z" fill-rule="nonzero"></path><path fill="#000000" d="m39.42583 255.70778l-1.5852814 0.07203674l-3.0268288 0.5766907l-2.7386627 1.2250671l-2.5221825 1.6573181l-2.0899296 2.0899353l-1.6573257 2.4501343l-1.1530285 2.81073l-0.64873123 3.026825l-0.072042465 1.5852661l0.072042465 1.5852966l0.64873123 3.026825l1.1530285 2.8106995l1.6573257 2.4501343l2.0899296 2.1619873l2.5221825 1.6573181l2.7386627 1.1530457l3.0268288 0.64871216l3.1705666 0l3.0988731 -0.64871216l2.738659 -1.1530457l2.450142 -1.6573181l2.161972 -2.1619873l1.6573257 -2.4501343l1.1530266 -2.8106995l0.64873123 -3.026825l0.07204437 -1.5852966l-0.07204437 -1.5852661l-0.64873123 -3.026825l-1.1530266 -2.81073l-1.6573257 -2.4501343l-2.161972 -2.0899353l-2.450142 -1.6573181l-2.738659 -1.2250671l-3.0988731 -0.5766907l-1.5852852 -0.07203674z" fill-rule="nonzero"></path><path fill="#000000" d="m42.95696 291.01974l0.43260574 0.072052l0.50429535 0.5766907l0.07204437 0.36019897l-2.7383118 5.9092407l-3.242958 0l-2.8107033 -5.9092407l0 -0.36019897l0.57668686 -0.5766907l0.4322586 -0.072052zm-2.017887 7.494873l0.14443588 0.072021484l0.07204056 0.144104l1.3691559 20.178162l0 0.072052l0 0.072021484l-2.8827438 4.1078186l0 0.072052l-0.2161293 0l-0.07204056 -0.072052l-2.6662712 -4.17984l0 -0.072052l1.2971153 -20.178162l0.07204056 -0.144104l0.14408493 -0.072021484zm-8.0711975 -10.7378235l-2.0178852 0.072052l-3.8913403 0.79281616l-3.531128 1.5132141l-3.1709137 2.1619873l-2.7386608 2.666626l-2.161971 3.1705627l-1.4411983 3.6035156l-0.8648586 3.8193054l0 2.0899048l0 16.07071l0 0.21612549l1.080986 0.3602295l3.8916883 1.1530151l7.350424 1.7297058l6.774086 1.0089417l6.1977425 0.4322815l2.8107033 0.072021484l5.260498 -0.14407349l8.575844 -1.2250671l8.3597145 -2.3781128l1.3691597 -0.72076416l1.0809784 -0.504303l0.07204437 0l0 -16.07071l-0.07204437 -2.0899048l-0.79280853 -3.8193054l-1.5132446 -3.6035156l-2.0899277 -3.1705627l-2.7386627 -2.666626l-3.1705666 -2.1619873l-3.531475 -1.5132141l-3.8913383 -0.79281616l-2.017887 -0.072052z" fill-rule="nonzero"></path><path fill="#000000" d="m33.975613 289.75214l10.929134 0l0 35.212585l-10.929134 0z" fill-rule="nonzero"></path><path fill="#000000" d="m255.0084 255.71515l-1.5895844 0.07556152l-3.0273285 0.6055298l-2.8006592 1.1355286l-2.4977112 1.6651306l-2.0436401 2.1192017l-1.7407074 2.4977112l-1.1355133 2.800293l-0.6055298 3.0276794l-0.07556152 1.5895996l0.07556152 1.5892334l0.6055298 3.0276794l1.1355133 2.800293l1.7407074 2.4221497l2.0436401 2.1192017l2.4977112 1.6651611l2.8006592 1.2110596l3.0273285 0.6055298l1.5895844 0.07556152l1.5892181 -0.07556152l3.0276794 -0.6055298l2.8006592 -1.2110596l2.4977112 -1.6651611l2.0433044 -2.1192017l1.7410583 -2.4221497l1.1351624 -2.800293l0.6055298 -3.0276794l0.07589722 -1.5892334l-0.07589722 -1.5895996l-0.6055298 -3.0276794l-1.1351624 -2.800293l-1.7410583 -2.4977112l-2.0433044 -2.1192017l-2.4977112 -1.6651306l-2.8006592 -1.1355286l-3.0276794 -0.6055298l-1.5892181 -0.07556152zm-36.406403 49.500122l0 14.229584l2.5736237 0l0 -14.229584zm3.86026 3.0276794l0 11.201904l2.5732727 0l0 -11.201904zm3.7843475 -7.0390625l0 18.240967l2.5736237 0l0 -18.240967zm4.162842 2.0436401l0 16.197327l2.5736237 0l0 -16.197327zm3.7846985 4.9954224l0 11.201904l2.5732727 0l0 -11.201904zm3.859909 -3.0276794l0 14.229584l2.6491852 0l0 -14.229584zm12.034485 -8.098663l0 24.296356l-39.43373 0l0 -24.296356zm-42.385498 -2.1947632l0 28.912903l17.181366 0l0 2.1951294l-3.406189 0.22702026l-3.4813995 0.45407104l-1.2110748 0.37850952l-0.075912476 0.22702026l0.22703552 0.3025818l2.1951141 0.45443726l6.2820587 0.6055298l5.8279877 0.07556152l5.8279877 -0.07556152l6.2824097 -0.6055298l2.1947632 -0.45443726l0.22702026 -0.3025818l-0.15110779 -0.22702026l-1.4381104 -0.45407104l-4.2387695 -0.52996826l-4.0869293 -0.15148926l0 -2.1192017l17.181015 0l0 -28.912903zm40.720352 -7.114624l-2.0436401 0.07556152l-3.7843475 0.7569885l-3.557312 1.4377747l-3.103241 2.1195374l-1.3625488 1.2866516l20.663116 0l0 31.789124l-9.915268 0l1.6651306 0.45407104l0.98405457 0.9840393l0 0.6055298l0 0.45407104l-0.302948 0.45407104l4.768387 0.45440674l4.314331 0.07556152l5.2224426 -0.15145874l8.628632 -1.2110901l8.325714 -2.4217834l1.3625488 -0.6814575l1.0596008 -0.52963257l0.15112305 0l0 -16.121765l-0.07556152 -2.0436401l-0.83258057 -3.8599243l-1.5136719 -3.557312l-2.1192017 -3.1791382l-2.7250977 -2.6492004l-3.1788025 -2.1947632l-3.557312 -1.5136719l-3.86026 -0.7569885l-2.043274 -0.07556152z" fill-rule="nonzero"></path><path fill="#000000" fill-opacity="0.0" d="m77.443665 301.34497l22.015747 0" fill-rule="nonzero"></path><path stroke="#1155cc" stroke-width="1.0" stroke-linejoin="round" stroke-linecap="butt" d="m77.443665 301.34497l16.015747 0" fill-rule="evenodd"></path><path fill="#1155cc" stroke="#1155cc" stroke-width="1.0" stroke-linecap="butt" d="m93.45941 302.9967l4.5380936 -1.6517334l-4.5380936 -1.6517334z" fill-rule="evenodd"></path><path fill="#000000" d="m137.46104 255.70778l-1.5852814 0.07203674l-3.026825 0.5766907l-2.7386627 1.2250671l-2.5221863 1.6573181l-2.0899277 2.0899353l-1.6573257 2.4501343l-1.1530304 2.81073l-0.6487274 3.026825l-0.07204437 1.5852661l0.07204437 1.5852966l0.6487274 3.026825l1.1530304 2.8106995l1.6573257 2.4501343l2.0899277 2.1619873l2.5221863 1.6573181l2.7386627 1.1530457l3.026825 0.64871216l3.1705627 0l3.098877 -0.64871216l2.7386627 -1.1530457l2.4501343 -1.6573181l2.161972 -2.1619873l1.6573334 -2.4501343l1.1530304 -2.8106995l0.6487274 -3.026825l0.07203674 -1.5852966l-0.07203674 -1.5852661l-0.6487274 -3.026825l-1.1530304 -2.81073l-1.6573334 -2.4501343l-2.161972 -2.0899353l-2.4501343 -1.6573181l-2.7386627 -1.2250671l-3.098877 -0.5766907l-1.5852814 -0.07203674z" fill-rule="nonzero"></path><path fill="#000000" d="m140.99217 291.01974l0.43260193 0.072052l0.504303 0.5766907l0.07203674 0.36019897l-2.7383118 5.9092407l-3.2429504 0l-2.8106995 -5.9092407l0 -0.36019897l0.5766754 -0.5766907l0.43226624 -0.072052zm-2.0178833 7.494873l0.1444397 0.072021484l0.07203674 0.144104l1.3691559 20.178162l0 0.072052l0 0.072021484l-2.8827515 4.1078186l0 0.072052l-0.21612549 0l-0.07203674 -0.072052l-2.666275 -4.17984l0 -0.072052l1.2971191 -20.178162l0.07203674 -0.144104l0.14408875 -0.072021484zm-8.0711975 -10.7378235l-2.0178833 0.072052l-3.8913422 0.79281616l-3.531128 1.5132141l-3.1709137 2.1619873l-2.7386627 2.666626l-2.161972 3.1705627l-1.4412003 3.6035156l-0.8648529 3.8193054l0 2.0899048l0 16.07071l0 0.21612549l1.080986 0.3602295l3.8916855 1.1530151l7.3504257 1.7297058l6.7740784 1.0089417l6.197754 0.4322815l2.8106995 0.072021484l5.260498 -0.14407349l8.575836 -1.2250671l8.359726 -2.3781128l1.3691559 -0.72076416l1.0809784 -0.504303l0.07203674 0l0 -16.07071l-0.07203674 -2.0899048l-0.79281616 -3.8193054l-1.5132446 -3.6035156l-2.08992 -3.1705627l-2.7386627 -2.666626l-3.1705627 -2.1619873l-3.531479 -1.5132141l-3.8913422 -0.79281616l-2.0178833 -0.072052z" fill-rule="nonzero"></path><path fill="#000000" d="m352.54544 255.69748l-1.5852966 0.072052l-3.026825 0.5766907l-2.7386475 1.2250671l-2.5221863 1.6573181l-2.0899353 2.0899353l-1.6573181 2.4501343l-1.1530457 2.8106995l-0.64871216 3.026825l-0.072052 1.5852966l0.072052 1.5852966l0.64871216 3.026825l1.1530457 2.8106995l1.6573181 2.4501343l2.0899353 2.1619873l2.5221863 1.6573181l2.7386475 1.1530151l3.026825 0.6487427l3.1705627 0l3.098877 -0.6487427l2.738678 -1.1530151l2.4501343 -1.6573181l2.1619568 -2.1619873l1.6573486 -2.4501343l1.1530151 -2.8106995l0.6487427 -3.026825l0.072021484 -1.5852966l-0.072021484 -1.5852966l-0.6487427 -3.026825l-1.1530151 -2.8106995l-1.6573486 -2.4501343l-2.1619568 -2.0899353l-2.4501343 -1.6573181l-2.738678 -1.2250671l-3.098877 -0.5766907l-1.5852661 -0.072052z" fill-rule="nonzero"></path><path fill="#000000" d="m356.07657 291.00946l0.43258667 0.072021484l0.504303 0.5766907l0.072052 0.3602295l-2.7383118 5.90921l-3.2429504 0l-2.81073 -5.90921l0 -0.3602295l0.5766907 -0.5766907l0.43225098 -0.072021484zm-2.0178833 7.4948425l0.14440918 0.072052l0.072052 0.14407349l1.3691711 20.178192l0 0.072021484l0 0.072052l-2.8827515 4.1078186l0 0.072052l-0.21612549 0l-0.072052 -0.072052l-2.6662598 -4.1798706l0 -0.072021484l1.2971191 -20.178192l0.072021484 -0.14407349l0.144104 -0.072052zm-8.0711975 -10.737793l-2.0179138 0.072021484l-3.891327 0.79281616l-3.531128 1.5132446l-3.1708984 2.1619873l-2.738678 2.6665955l-2.1619568 3.1705627l-1.4412231 3.6035461l-0.86483765 3.819275l0 2.0899353l0 16.07071l0 0.21612549l1.0809937 0.36019897l3.8916626 1.1530457l7.3504333 1.7297058l6.7740784 1.0089417l6.197754 0.43225098l2.8106995 0.072052l5.260498 -0.14407349l8.575836 -1.2250977l8.359711 -2.3780823l1.3691711 -0.72076416l1.0809937 -0.504303l0.072021484 0l0 -16.07071l-0.072021484 -2.0899353l-0.79281616 -3.819275l-1.5132446 -3.6035461l-2.0899353 -3.1705627l-2.7386475 -2.6665955l-3.1705933 -2.1619873l-3.5314636 -1.5132446l-3.891327 -0.79281616l-2.0178833 -0.072021484z" fill-rule="nonzero"></path><path fill="#000000" d="m450.58063 255.69748l-1.5852661 0.072052l-3.026825 0.5766907l-2.738678 1.2250671l-2.5221863 1.6573181l-2.0899048 2.0899353l-1.6573486 2.4501343l-1.1530151 2.8106995l-0.6487427 3.026825l-0.072021484 1.5852966l0.072021484 1.5852966l0.6487427 3.026825l1.1530151 2.8106995l1.6573486 2.4501343l2.0899048 2.1619873l2.5221863 1.6573181l2.738678 1.1530151l3.026825 0.6487427l3.1705627 0l3.098877 -0.6487427l2.7386475 -1.1530151l2.4501343 -1.6573181l2.1619873 -2.1619873l1.6573181 -2.4501343l1.1530457 -2.8106995l0.64871216 -3.026825l0.072052 -1.5852966l-0.072052 -1.5852966l-0.64871216 -3.026825l-1.1530457 -2.8106995l-1.6573181 -2.4501343l-2.1619873 -2.0899353l-2.4501343 -1.6573181l-2.7386475 -1.2250671l-3.098877 -0.5766907l-1.5852966 -0.072052z" fill-rule="nonzero"></path><path fill="#000000" d="m454.11176 291.00946l0.4326172 0.072021484l0.504303 0.5766907l0.072021484 0.3602295l-2.7383118 5.90921l-3.2429504 0l-2.8106995 -5.90921l0 -0.3602295l0.5766907 -0.5766907l0.43225098 -0.072021484zm-2.0178833 7.4948425l0.1444397 0.072052l0.072052 0.14407349l1.3691406 20.178192l0 0.072021484l0 0.072052l-2.8827515 4.1078186l0 0.072052l-0.21612549 0l-0.072021484 -0.072052l-2.6662903 -4.1798706l0 -0.072021484l1.2971191 -20.178192l0.072052 -0.14407349l0.14407349 -0.072052zm-8.0711975 -10.737793l-2.0178833 0.072021484l-3.891327 0.79281616l-3.531128 1.5132446l-3.170929 2.1619873l-2.7386475 2.6665955l-2.1619873 3.1705627l-1.4411926 3.6035461l-0.86486816 3.819275l0 2.0899353l0 16.07071l0 0.21612549l1.0809937 0.36019897l3.891693 1.1530457l7.3504333 1.7297058l6.7740784 1.0089417l6.197754 0.43225098l2.8106995 0.072052l5.260498 -0.14407349l8.575836 -1.2250977l8.359711 -2.3780823l1.3691711 -0.72076416l1.0809631 -0.504303l0.072052 0l0 -16.07071l-0.072052 -2.0899353l-0.79281616 -3.819275l-1.5132446 -3.6035461l-2.0899048 -3.1705627l-2.738678 -2.6665955l-3.1705627 -2.1619873l-3.5314636 -1.5132446l-3.8913574 -0.79281616l-2.0178833 -0.072021484z" fill-rule="nonzero"></path><path fill="#000000" d="m347.0952 289.74185l10.929138 0l0 35.212585l-10.929138 0z" fill-rule="nonzero"></path><path fill="#000000" fill-opacity="0.0" d="m174.7714 301.3347l22.015747 0" fill-rule="nonzero"></path><path stroke="#1155cc" stroke-width="1.0" stroke-linejoin="round" stroke-linecap="butt" d="m174.7714 301.3347l16.015747 0" fill-rule="evenodd"></path><path fill="#1155cc" stroke="#1155cc" stroke-width="1.0" stroke-linecap="butt" d="m190.78714 302.98642l4.538086 -1.6517334l-4.538086 -1.6517334z" fill-rule="evenodd"></path><path fill="#000000" fill-opacity="0.0" d="m292.78653 301.3347l22.015747 0" fill-rule="nonzero"></path><path stroke="#1155cc" stroke-width="1.0" stroke-linejoin="round" stroke-linecap="butt" d="m292.78653 301.3347l16.015747 0" fill-rule="evenodd"></path><path fill="#1155cc" stroke="#1155cc" stroke-width="1.0" stroke-linecap="butt" d="m308.80228 302.98642l4.5381165 -1.6517334l-4.5381165 -1.6517334z" fill-rule="evenodd"></path><path fill="#000000" fill-opacity="0.0" d="m390.5613 301.3347l22.015747 0" fill-rule="nonzero"></path><path stroke="#cc0000" stroke-width="1.0" stroke-linejoin="round" stroke-linecap="butt" d="m390.5613 301.3347l16.015747 0" fill-rule="evenodd"></path><path fill="#cc0000" stroke="#cc0000" stroke-width="1.0" stroke-linecap="butt" d="m406.57706 302.98642l4.538086 -1.6517334l-4.538086 -1.6517334z" fill-rule="evenodd"></path><path fill="#000000" fill-opacity="0.0" d="m487.8911 301.3347l22.015747 0" fill-rule="nonzero"></path><path stroke="#cc0000" stroke-width="1.0" stroke-linejoin="round" stroke-linecap="butt" d="m487.8911 301.3347l16.015747 0" fill-rule="evenodd"></path><path fill="#cc0000" stroke="#cc0000" stroke-width="1.0" stroke-linecap="butt" d="m503.90686 302.98642l4.5381165 -1.6517334l-4.5381165 -1.6517334z" fill-rule="evenodd"></path><path fill="#000000" d="m568.12805 255.70485l-1.5895996 0.07556152l-3.0273438 0.60554504l-2.8006592 1.135498l-2.4976807 1.6651611l-2.0436401 2.1192017l-1.7407227 2.4977112l-1.135498 2.800293l-0.6055298 3.0276794l-0.07556152 1.5895691l0.07556152 1.5892334l0.6055298 3.02771l1.135498 2.800293l1.7407227 2.4221497l2.0436401 2.1192017l2.4976807 1.6651306l2.8006592 1.2110901l3.0273438 0.6055298l1.5895996 0.07556152l1.5892334 -0.07556152l3.027649 -0.6055298l2.8006592 -1.2110901l2.4977417 -1.6651306l2.043274 -2.1192017l1.7410278 -2.4221497l1.1351929 -2.800293l0.6055298 -3.02771l0.075927734 -1.5892334l-0.075927734 -1.5895691l-0.6055298 -3.0276794l-1.1351929 -2.800293l-1.7410278 -2.4977112l-2.043274 -2.1192017l-2.4977417 -1.6651611l-2.8006592 -1.135498l-3.027649 -0.60554504l-1.5892334 -0.07556152zm-36.406433 49.500137l0 14.229584l2.5736694 0l0 -14.229584zm3.8602905 3.0276794l0 11.201904l2.5732422 0l0 -11.201904zm3.7843018 -7.0390625l0 18.240967l2.5736694 0l0 -18.240967zm4.162903 2.0436401l0 16.197327l2.5736084 0l0 -16.197327zm3.784668 4.9954224l0 11.201904l2.5732422 0l0 -11.201904zm3.8599243 -3.0276794l0 14.229584l2.64917 0l0 -14.229584zm12.034485 -8.098663l0 24.296326l-39.433716 0l0 -24.296326zm-42.385498 -2.1947937l0 28.912933l17.181335 0l0 2.1950989l-3.406189 0.22705078l-3.4813843 0.45407104l-1.2110596 0.378479l-0.075927734 0.22705078l0.22705078 0.3025818l2.1950684 0.45440674l6.2821045 0.6055603l5.827942 0.07556152l5.828003 -0.07556152l6.2824097 -0.6055603l2.1947632 -0.45440674l0.22705078 -0.3025818l-0.15112305 -0.22705078l-1.4381104 -0.45404053l-4.2387695 -0.5299988l-4.086914 -0.15145874l0 -2.1192017l17.18103 0l0 -28.912933zm40.720337 -7.114624l-2.0436401 0.07556152l-3.7843628 0.75701904l-3.557312 1.4377747l-3.1032104 2.1195374l-1.3625488 1.2866516l20.663086 0l0 31.789124l-9.915283 0l1.6651611 0.45404053l0.9840698 0.9840698l0 0.6055298l0 0.45407104l-0.30297852 0.45404053l4.7683716 0.45443726l4.314331 0.07556152l5.222473 -0.15148926l8.628662 -1.2110596l8.325684 -2.421814l1.3625488 -0.681427l1.0595703 -0.52963257l0.15112305 0l0 -16.121765l-0.07556152 -2.0436707l-0.83258057 -3.8598938l-1.5136108 -3.557312l-2.1192017 -3.1791687l-2.7250977 -2.64917l-3.178833 -2.1947632l-3.557312 -1.5136719l-3.8602295 -0.75701904l-2.043335 -0.07556152z" fill-rule="nonzero"></path><path fill="#000000" d="m660.17535 289.74185l10.929138 0l0 35.212585l-10.929138 0z" fill-rule="nonzero"></path><path fill="#000000" fill-opacity="0.0" d="m605.8667 301.3347l22.015747 0" fill-rule="nonzero"></path><path stroke="#cc0000" stroke-width="1.0" stroke-linejoin="round" stroke-linecap="butt" d="m605.8667 301.3347l16.015747 0" fill-rule="evenodd"></path><path fill="#cc0000" stroke="#cc0000" stroke-width="1.0" stroke-linecap="butt" d="m621.88245 302.98642l4.538086 -1.6517334l-4.538086 -1.6517334z" fill-rule="evenodd"></path><path fill="#000000" fill-opacity="0.0" d="m703.5575 301.3347l22.015747 0" fill-rule="nonzero"></path><path stroke="#38761d" stroke-width="1.0" stroke-linejoin="round" stroke-linecap="butt" d="m703.5575 301.3347l16.015747 0" fill-rule="evenodd"></path><path fill="#38761d" stroke="#38761d" stroke-width="1.0" stroke-linecap="butt" d="m719.57324 302.98642l4.538086 -1.6517334l-4.538086 -1.6517334z" fill-rule="evenodd"></path><path fill="#000000" d="m665.6256 255.69748l-1.5853271 0.072052l-3.0267944 0.5766907l-2.7386475 1.2250671l-2.5222168 1.6573181l-2.0899048 2.0899353l-1.6573486 2.4501343l-1.1530151 2.8106995l-0.6487427 3.026825l-0.072021484 1.5852966l0.072021484 1.5852966l0.6487427 3.026825l1.1530151 2.8106995l1.6573486 2.4501343l2.0899048 2.1619873l2.5222168 1.6573181l2.7386475 1.1530151l3.0267944 0.6487427l3.1705933 0l3.098877 -0.6487427l2.7386475 -1.1530151l2.4501343 -1.6573181l2.1619873 -2.1619873l1.6573486 -2.4501343l1.1530151 -2.8106995l0.6487427 -3.026825l0.072021484 -1.5852966l-0.072021484 -1.5852966l-0.6487427 -3.026825l-1.1530151 -2.8106995l-1.6573486 -2.4501343l-2.1619873 -2.0899353l-2.4501343 -1.6573181l-2.7386475 -1.2250671l-3.098877 -0.5766907l-1.5852661 -0.072052z" fill-rule="nonzero"></path><path fill="#000000" d="m669.15674 291.00946l0.43255615 0.072021484l0.5043335 0.5766907l0.072021484 0.3602295l-2.7382812 5.90921l-3.242981 0l-2.81073 -5.90921l0 -0.3602295l0.5767212 -0.5766907l0.43225098 -0.072021484zm-2.0178833 7.4948425l0.14440918 0.072052l0.072021484 0.14407349l1.3692017 20.178192l0 0.072021484l0 0.072052l-2.8827515 4.1078186l0 0.072052l-0.21612549 0l-0.07208252 -0.072052l-2.6662598 -4.1798706l0 -0.072021484l1.2971191 -20.178192l0.072021484 -0.14407349l0.144104 -0.072052zm-8.071228 -10.737793l-2.0178833 0.072021484l-3.8913574 0.79281616l-3.531128 1.5132446l-3.1708984 2.1619873l-2.7386475 2.6665955l-2.1619873 3.1705627l-1.4412231 3.6035461l-0.8648071 3.819275l0 2.0899353l0 16.07071l0 0.21612549l1.0809937 0.36019897l3.8916626 1.1530457l7.350403 1.7297058l6.774109 1.0089417l6.197754 0.43225098l2.810669 0.072052l5.260498 -0.14407349l8.575867 -1.2250977l8.35968 -2.3780823l1.3692017 -0.72076416l1.0809937 -0.504303l0.072021484 0l0 -16.07071l-0.072021484 -2.0899353l-0.7928467 -3.819275l-1.5132446 -3.6035461l-2.0899048 -3.1705627l-2.7386475 -2.6665955l-3.1705933 -2.1619873l-3.5314941 -1.5132446l-3.8912964 -0.79281616l-2.0178833 -0.072021484z" fill-rule="nonzero"></path></g></svg>

